PathFileType	4	(X/Y/Z)	C:\Users\willi\Desktop\Data_PaperCallum_v2\17_Akif\Gait04\marker_experimental_temp.trc
DataRate	CameraRate	NumFrames	NumMarkers	Units	OrigDataRate	OrigDataStartFrame	OrigNumFrames
100.000000	100.000000	5	27	mm	100.000000	45	181
Frame#	Time	C7			T10			Clav			Sternum			Right_Back			PCL_CRAN			PCL_RECHTS			PCL_LINKS			RCL_UL_CRAN			RCL_UL_POST			RCL_UL_ANT			RCL_LL_CRAN			RCL_LL_POST			RCL_LL_ANT			Right_Heel			Right_Toe			Right_M5			LCL_UL_CRAN			LCL_UL_POST			LCL_UL_ANT			LCL_LL_CRAN			LCL_LL_POST			LCL_LL_ANT			Left_Heel			Left_Toe			Left_M5			*26			
		X1	Y1	Z1	X2	Y2	Z2	X3	Y3	Z3	X4	Y4	Z4	X5	Y5	Z5	X6	Y6	Z6	X7	Y7	Z7	X8	Y8	Z8	X9	Y9	Z9	X10	Y10	Z10	X11	Y11	Z11	X12	Y12	Z12	X13	Y13	Z13	X14	Y14	Z14	X15	Y15	Z15	X16	Y16	Z16	X17	Y17	Z17	X18	Y18	Z18	X19	Y19	Z19	X20	Y20	Z20	X21	Y21	Z21	X22	Y22	Z22	X23	Y23	Z23	X24	Y24	Z24	X25	Y25	Z25	X26	Y26	Z26	X27	Y27	Z27	

46	0.45	946.9793090820311	1415.609375	150.7907714843749	980.4250488281249	1197.312866210938	153.8945159912109	805.2318115234374	1344.512451171875	158.2854309082031	741.5379638671874	1183.475219726563	174.5204162597656	981.0418701171874	1350.93505859375	40.81061172485346	973.3411254882811	1030.575073242188	144.673599243164	982.8702392578124	972.2919921875001	118.9808502197265	986.8468627929686	970.5238647460939	169.4741210937499	791.7139282226563	748.98046875	-29.4255981445313	786.5772094726563	684.16064453125	-26.73385047912603	741.953369140625	706.6416625976563	-30.25434112548833	765.6160278320313	412.8714294433594	-16.37858009338384	806.633544921875	362.3134460449219	-17.01020622253423	758.3458251953125	347.6539916992188	-14.89964580535893	928.2643432617188	94.20682525634771	78.96232604980463	743.788818359375	56.3166999816895	35.44532012939449	795.5936889648438	49.77982330322271	-8.07256221771245	886.7643432617188	753.60400390625	315.5383605957031	903.0664672851563	691.6095581054688	303.2609863281249	854.296875	696.8026733398438	312.3482360839843	958.7476806640625	379.2503356933594	263.5403747558593	990.7120971679688	322.4938964843751	262.9489440917968	940.6459350585938	316.9072570800782	258.3371582031249	1059.994018554688	43.71476745605475	164.6644592285156	854.8486938476563	31.64437294006353	182.0206756591796	905.7131958007813	12.29714775085455	242.1155395507812	nan	nan	nan	
47	0.46	933.1135253906249	1414.599609375	150.8540649414062	966.6152343749999	1196.4443359375	153.4925537109374	791.3056640624999	1343.487060546875	158.0595092773437	727.9205932617186	1182.304321289063	174.7381591796874	967.3891601562499	1349.9404296875	41.29035186767572	959.8463134765624	1029.71240234375	143.3622436523437	969.2837524414061	971.3981323242189	117.6789932250976	973.7043457031249	969.7228393554689	168.1465301513671	776.3782958984375	748.4622802734375	-28.87325096130376	770.4283447265625	683.80078125	-26.02706527709966	725.8873901367188	706.7916259765625	-28.99889755249028	744.3497924804688	410.2331237792969	-14.0597476959229	781.9602661132813	356.9563293457032	-14.89788627624517	732.8661499023438	345.5417785644532	-12.73819351196294	883.235107421875	80.83513641357428	81.58670043945307	697.1077270507813	55.94891357421879	36.38684463500972	748.666748046875	45.59811782836918	-6.704422473907517	877.5250244140625	753.3142700195313	315.1650085449218	894.6893920898438	691.5482788085938	302.6613464355468	845.8697509765625	696.0149536132813	311.8693237304687	955.1119995117188	380.0390930175782	262.7028808593749	987.8383178710938	323.6695556640626	262.2542114257812	937.8843994140625	317.4355163574219	257.4665832519531	1059.660278320313	45.18751525878913	163.8355712890624	854.7597045898438	31.58813476562505	182.1199645996093	905.9191284179688	12.46155834198004	241.9380950927734	nan	nan	nan	
48	0.47	919.1965332031249	1413.337524414063	150.8321685791015	952.7045288085936	1195.31396484375	152.974136352539	777.2984619140624	1342.231567382813	157.7988891601562	714.2009887695311	1180.90234375	174.9350891113281	953.6363525390624	1348.68603515625	41.68095397949213	946.2233886718749	1028.591430664063	141.9278717041015	955.5570068359374	970.2294311523439	116.2960357666015	960.4353637695311	968.6845092773439	166.7357177734374	761.4907836914063	747.3060913085938	-28.31184577941899	755.0302734375	682.7857055664063	-25.2910594940186	710.4991455078125	706.1217041015625	-27.78915596008305	723.5777587890625	407.1919860839844	-11.71551990509038	757.68359375	351.3831176757813	-12.71605396270757	707.89404296875	343.3245849609376	-10.56360530853276	837.4195556640625	68.67397308349615	84.09030914306635	650.5687866210938	56.75458145141606	37.45391082763668	701.5423583984375	42.47963714599614	-5.26203250885014	868.2766723632813	752.9555053710938	314.8754882812499	886.2772827148438	691.4082641601563	302.1964111328124	837.4278564453125	695.1681518554688	311.5462951660156	951.1805419921875	380.7901306152344	261.9667663574218	984.6705932617188	324.8186035156251	261.6561584472656	934.8220825195313	317.9033203125001	256.6781311035156	1059.33349609375	46.7419509887696	163.1229248046874	854.7050170898438	31.53653907775884	182.2042541503906	906.1441040039063	12.60219573974615	241.7572479248046	nan	nan	nan	
49	0.48	905.2219238281249	1411.843505859375	150.7243499755859	938.6820678710936	1193.940063476563	152.3484191894531	763.2029418945311	1340.768432617188	157.5007019042968	700.3668212890624	1179.29443359375	175.1027069091796	939.7780151367186	1347.1904296875	41.97962951660151	932.4563598632811	1027.230102539063	140.3941345214843	941.6746215820311	968.8062744140626	114.8510284423828	947.0181884765624	967.4244995117189	165.2606658935546	747.0162963867188	745.5321655273438	-27.76347923278813	740.3856201171875	681.1138916015625	-24.56648635864262	695.7933959960938	704.6171875	-26.68136215209965	703.25830078125	403.8529357910157	-9.355079650878949	733.78173828125	345.7535705566407	-10.45723628997807	683.4356689453125	341.1056213378907	-8.400660514831586	791.1766967773438	57.95580291748052	86.42444610595699	604.47265625	58.8808517456055	38.58061981201168	654.5224609375	40.6480979919434	-3.806547880172769	858.9849853515625	752.5396118164063	314.6670837402343	877.7921142578125	691.2052001953125	301.8650817871093	828.9361572265625	694.2802124023438	311.3888244628906	946.9496459960938	381.5065002441407	261.3486938476562	981.2023315429688	325.9494628906251	261.1703796386718	931.460205078125	318.3216247558594	256.0083618164062	1059.000366210938	48.40240097045905	162.5568542480468	854.6832885742188	31.48663520812994	182.2778320312499	906.38037109375	12.71184539794927	241.5855712890624	nan	nan	nan	
50	0.49	891.1842041015624	1410.141845703125	150.5301361083984	924.5383911132811	1192.344848632813	151.6264648437499	749.0130615234374	1339.124877929688	157.1622009277343	686.4071655273436	1177.510375976563	175.2332000732422	925.8097534179686	1345.475830078125	42.18392562866205	918.5301513671874	1025.6513671875	138.7874450683593	927.6227416992186	967.1546630859375	113.3640899658203	933.4322509765624	965.9627685546876	163.7414550781249	732.896484375	743.1846923828125	-27.25118637084966	726.4539184570313	678.8110961914063	-23.90200805664067	681.7354125976563	702.2980346679688	-25.73052597045903	683.3475341796875	400.3245849609376	-6.987929344177288	710.2216796875	340.2271118164063	-8.134680747985882	659.4935302734375	338.9765319824219	-6.267126560211222	744.9513549804688	48.83234786987309	88.55117797851558	559.1759643554688	62.39334487915043	39.73138809204098	607.9804077148438	40.25228500366214	-2.373709201812781	849.609375	752.0778198242188	314.5342102050781	869.193359375	690.9551391601563	301.6596374511718	820.355224609375	693.3679809570313	311.3977050781249	942.4172973632813	382.1948242187501	260.8625793457031	977.430908203125	327.0743713378907	260.8087768554687	927.804931640625	318.7075500488282	255.4921417236328	1058.646850585938	50.19768524169928	162.1627349853515	854.6901245117188	31.43813323974615	182.3466186523437	906.6174926757813	12.78750801086431	241.4356994628906	nan	nan	nan	
